<svg width="636" height="83" viewBox="0 0 636 83" fill="none" xmlns="http://www.w3.org/2000/svg">
<path d="M45.369 30.542L41.987 21.909H70.556V30.542H64.682V81.984L53.646 77V53.237C52.934 53.4743 52.222 53.682 51.51 53.86C50.798 53.9787 50.0563 54.038 49.285 54.038C48.573 53.9787 47.95 53.949 47.416 53.949C46.882 53.8897 46.1997 53.7413 45.369 53.504C44.5977 53.2667 44.0043 53.0887 43.589 52.97C43.233 52.8513 42.6397 52.614 41.809 52.258C40.9783 51.8427 40.4147 51.5757 40.118 51.457C39.8807 51.3383 39.317 51.0417 38.427 50.567C37.537 50.0923 37.0327 49.8253 36.914 49.766L36.469 50.122C37.893 51.0713 38.783 51.6647 39.139 51.902C39.495 52.1393 40.296 52.7623 41.542 53.771C42.8473 54.7203 43.767 55.551 44.301 56.263C44.8943 56.9157 45.5767 57.8353 46.348 59.022C47.1193 60.1493 47.7127 61.336 48.128 62.582C48.8993 64.7773 48.4543 67.0913 46.793 69.524C45.191 71.9567 42.966 73.9443 40.118 75.487C37.3293 77.0297 34.333 78.0977 31.129 78.691C27.9843 79.3437 25.255 78.958 22.941 77.534C17.779 74.3893 10.3623 65.697 0.691 51.457L2.916 49.855C3.03467 49.9737 3.59833 50.745 4.607 52.169C5.675 53.593 6.41667 54.572 6.832 55.106C7.30667 55.64 8.13733 56.6487 9.324 58.132C10.57 59.556 11.549 60.624 12.261 61.336C13.0323 61.9887 14.0707 62.9083 15.376 64.095C16.6813 65.2817 17.8383 66.142 18.847 66.676C19.8557 67.21 21.0423 67.8033 22.407 68.456C23.7717 69.0493 25.0473 69.4053 26.234 69.524C27.4207 69.5833 28.726 69.4943 30.15 69.257C31.574 69.0197 32.9387 68.545 34.244 67.833C37.5073 65.9343 38.961 63.5907 38.605 60.802C38.3083 57.954 36.4987 55.0467 33.176 52.08C30.0313 53.504 26.679 54.305 23.119 54.483L18.313 46.206C24.365 45.5533 29.0523 44.159 32.375 42.023C35.6977 39.887 36.825 37.5137 35.757 34.903C34.8077 32.589 33.354 31.1353 31.396 30.542C29.438 29.8893 27.213 30.0377 24.721 30.987C22.2883 31.9363 20.3007 32.8263 18.758 33.657C17.2747 34.4877 15.732 35.437 14.13 36.505L8.701 28.762L10.392 27.516C11.5787 26.7447 12.4983 26.181 13.151 25.825C13.8037 25.4097 14.8123 24.8163 16.177 24.045C17.5417 23.2143 18.6987 22.6507 19.648 22.354C20.6567 22.0573 21.784 21.7903 23.03 21.553C24.276 21.3157 25.433 21.3453 26.501 21.642C27.569 21.8793 28.548 22.354 29.438 23.066C34.7187 27.516 38.694 31.076 41.364 33.746C43.322 35.882 43.9747 38.3443 43.322 41.133C42.6693 43.9217 40.9783 46.473 38.249 48.787C44.123 49.7363 49.2553 48.0157 53.646 43.625V30.542H45.369ZM113.813 77V61.692H99.9295C99.9295 64.718 99.5141 67.2693 98.6835 69.346C97.9121 71.4227 96.9331 72.906 95.7465 73.796C94.6191 74.6267 93.3731 75.1903 92.0085 75.487C90.6438 75.7243 89.4571 75.754 88.4485 75.576C87.4398 75.398 86.6388 75.1013 86.0455 74.686C82.1888 72.0753 79.0441 69.3163 76.6115 66.409C76.0181 65.697 75.6325 64.7773 75.4545 63.65C75.2765 62.5227 75.3655 61.3063 75.7215 60.001C76.0775 58.6957 76.7005 57.4793 77.5905 56.352C78.5398 55.1653 79.9935 54.2457 81.9515 53.593C83.9095 52.881 86.2235 52.5843 88.8935 52.703V46.74C86.5795 46.918 85.2148 46.7697 84.7995 46.295C83.0195 44.515 80.9131 42.646 78.4805 40.688C76.1071 38.6707 74.2975 37.0687 73.0515 35.882C71.9835 34.9327 71.4495 33.657 71.4495 32.055C71.5088 30.3937 72.0131 28.8213 72.9625 27.338C73.9118 25.8547 75.0985 24.5197 76.5225 23.333C77.9465 22.087 79.4891 21.4343 81.1505 21.375C82.8118 21.2563 84.4138 21.7903 85.9565 22.977C86.8465 23.7483 88.1815 24.8757 89.9615 26.359C91.7415 27.783 93.0765 28.8807 93.9665 29.652C94.9158 30.4233 95.9838 31.3727 97.1705 32.5C98.3571 33.568 99.3361 34.547 100.107 35.437L99.9295 42.824V52.97L113.813 52.881V30.453H100.997L97.6155 21.909H131.524V30.453H124.849V81.984L113.813 77ZM88.8935 38.552C88.8935 33.212 88.7155 30.364 88.3595 30.008C86.9948 28.584 85.3928 28.406 83.5535 29.474C81.7735 30.542 80.5868 31.9957 79.9935 33.835C79.4595 35.6743 79.5781 37.0983 80.3495 38.107C81.6548 39.1157 84.5028 39.264 88.8935 38.552ZM88.8045 61.336C86.9651 61.0987 85.4818 61.3063 84.3545 61.959C83.2271 62.6117 82.6338 63.383 82.5745 64.273C82.5745 65.163 82.8118 65.9937 83.2865 66.765C83.8205 67.1803 84.5028 67.477 85.3335 67.655C86.1641 67.7737 86.9355 67.2693 87.6475 66.142C88.4188 65.0147 88.8045 63.4127 88.8045 61.336ZM174.183 76.911V62.137C169.259 67.833 164.482 70.681 159.854 70.681C157.362 70.681 154.514 69.8207 151.31 68.1C148.106 66.32 145.229 64.3027 142.677 62.048C140.185 59.734 138.049 57.598 136.269 55.64C134.489 53.682 133.51 52.3767 133.332 51.724C133.273 51.4273 133.718 50.8637 134.667 50.033C135.617 49.2023 136.863 48.1937 138.405 47.007C140.007 45.761 141.194 44.782 141.965 44.07C145.407 40.9847 147.365 38.4037 147.839 36.327C148.373 34.2503 147.691 32.2923 145.792 30.453H130.573V21.909H191.983V30.453H185.219V81.895L174.183 76.911ZM143.567 56.441C147.305 60.2977 151.162 62.048 155.137 61.692C159.113 61.2767 162.732 59.734 165.995 57.064C169.318 54.3347 172.047 50.923 174.183 46.829V30.453H151.666C155.226 33.4197 157.155 36.2973 157.451 39.086C157.511 39.7387 157.451 40.421 157.273 41.133C157.095 41.845 156.858 42.4977 156.561 43.091C156.324 43.6843 155.879 44.3963 155.226 45.227C154.633 45.9983 154.099 46.651 153.624 47.185C153.209 47.719 152.497 48.4607 151.488 49.41C150.48 50.3593 149.679 51.0713 149.085 51.546C148.551 52.0207 147.632 52.8217 146.326 53.949C145.08 55.0763 144.161 55.907 143.567 56.441ZM191.335 30.453V21.909H197.387C195.785 20.1883 194.598 18.2897 193.827 16.213C193.115 14.1363 193.026 12.297 193.56 10.695C194.272 8.85566 196.645 6.66033 200.68 4.10899C204.714 1.55766 207.622 0.34133 209.402 0.459999C211.656 0.578664 221.12 4.04966 237.793 10.873C254.525 17.6963 264.018 21.9387 266.273 23.6L260.577 23.511C238.564 15.145 222.663 10.9027 212.873 10.784C204.151 10.7247 202.519 14.433 207.978 21.909H215.988V30.453H209.135V82.073L198.099 77.089V30.453H191.335ZM264.273 76.911V59.022C260.476 60.8613 257.301 61.781 254.75 61.781C252.555 61.781 248.728 59.912 243.269 56.174C240.777 58.9627 237.543 60.98 233.568 62.226C234.636 64.2433 237.039 66.8837 240.777 70.147C244.574 73.4103 248.253 76.2583 251.813 78.691L249.321 81.984C241.074 76.822 235.289 72.8467 231.966 70.058C224.846 64.1247 220.099 57.8353 217.726 51.19C219.091 47.3333 220.455 44.604 221.82 43.002C222.354 42.3493 223.333 42.379 224.757 43.091C226.181 43.803 227.457 44.693 228.584 45.761C228.881 46.117 229.118 46.651 229.296 47.363C229.533 48.0157 229.741 48.9353 229.919 50.122C230.156 51.2493 230.394 52.2283 230.631 53.059C233.004 52.2877 234.844 51.0417 236.149 49.321C237.514 47.6003 238.285 45.672 238.463 43.536C238.7 41.3407 238.641 39.175 238.285 37.039C237.988 34.8437 237.454 32.6483 236.683 30.453H215.323V21.909H280.115V30.453H275.309V81.895L264.273 76.911ZM242.735 30.453C245.286 34.369 246.799 38.3147 247.274 42.29C247.808 46.206 247.185 49.7957 245.405 53.059C247.185 53.8303 249.113 54.2753 251.19 54.394C253.326 54.4533 255.64 53.8897 258.132 52.703C260.624 51.457 262.671 49.499 264.273 46.829V30.453H242.735ZM267.477 18.679C264.273 17.1957 261.9 14.8817 260.357 11.737C260.476 10.7283 261.425 9.45266 263.205 7.90999C264.926 6.308 266.29 5.38833 267.299 5.151C270.562 6.575 272.906 8.8 274.33 11.826C273.381 14.496 271.096 16.7803 267.477 18.679ZM279.287 30.453V21.909H338.205V30.453H330.907V81.984L319.871 77V30.453H298.155C302.012 34.6063 304.652 39.0563 306.076 43.803C307.56 48.4903 307.886 52.6733 307.055 56.352C306.225 59.9713 304.504 62.9973 301.893 65.43C299.283 67.8033 296.079 68.99 292.281 68.99C291.273 68.99 289.7 67.8627 287.564 65.608C285.428 63.3533 284.123 61.6623 283.648 60.535C283.055 59.111 283.114 56.9157 283.826 53.949C284.598 50.9823 285.725 49.232 287.208 48.698C287.386 48.6387 288.217 49.0837 289.7 50.033C291.243 50.9823 292.222 51.635 292.637 51.991C292.875 52.169 293.053 52.3767 293.171 52.614C293.29 52.792 293.409 53.059 293.527 53.415C293.646 53.7117 293.735 53.949 293.794 54.127C293.854 54.2457 293.943 54.6017 294.061 55.195C294.18 55.729 294.269 56.1147 294.328 56.352C296.939 52.4953 298.126 48.1047 297.888 43.18C297.71 38.2553 296.257 34.013 293.527 30.453H279.287ZM424.885 77V49.855H411.802C413.404 51.279 414.798 52.7623 415.985 54.305C417.231 55.7883 418.002 56.9453 418.299 57.776C419.011 59.9713 418.448 62.1963 416.608 64.451C414.828 66.7057 412.455 68.4857 409.488 69.791C406.581 71.037 403.525 71.8973 400.321 72.372C397.176 72.7873 394.625 72.283 392.667 70.859C388.87 68.2483 382.017 59.6153 372.108 44.96L374.422 43.536C378.991 49.054 382.165 52.703 383.945 54.483C390.412 60.7723 396.079 63.205 400.944 61.781C401.715 61.5437 402.487 61.247 403.258 60.891C404.089 60.4757 404.89 59.912 405.661 59.2C406.492 58.488 407.115 57.7167 407.53 56.886C407.945 55.996 408.064 54.9577 407.886 53.771C407.767 52.525 407.263 51.2197 406.373 49.855H399.965L390.264 41.311H424.885V30.453H368.459V21.909H443.575V30.453H435.921V81.984L424.885 77ZM442.512 30.453V21.909H501.43V30.453H494.132V81.984L483.096 77V30.453H461.38C465.237 34.6063 467.877 39.0563 469.301 43.803C470.784 48.4903 471.111 52.6733 470.28 56.352C469.449 59.9713 467.729 62.9973 465.118 65.43C462.507 67.8033 459.303 68.99 455.506 68.99C454.497 68.99 452.925 67.8627 450.789 65.608C448.653 63.3533 447.348 61.6623 446.873 60.535C446.28 59.111 446.339 56.9157 447.051 53.949C447.822 50.9823 448.95 49.232 450.433 48.698C450.611 48.6387 451.442 49.0837 452.925 50.033C454.468 50.9823 455.447 51.635 455.862 51.991C456.099 52.169 456.277 52.3767 456.396 52.614C456.515 52.792 456.633 53.059 456.752 53.415C456.871 53.7117 456.96 53.949 457.019 54.127C457.078 54.2457 457.167 54.6017 457.286 55.195C457.405 55.729 457.494 56.1147 457.553 56.352C460.164 52.4953 461.35 48.1047 461.113 43.18C460.935 38.2553 459.481 34.013 456.752 30.453H442.512ZM540.085 76.911V49.677L524.154 49.41C520.594 49.3507 517.746 50.4187 515.61 52.614C513.533 54.75 512.643 57.5683 512.94 61.069C513.296 64.5697 514.987 68.0407 518.013 71.482C520.564 74.33 523.115 76.9703 525.667 79.403L522.552 81.984C519.288 79.136 516.945 77.0593 515.521 75.754C514.097 74.4487 512.168 72.6093 509.736 70.236C507.303 67.8627 505.523 65.8453 504.396 64.184C503.268 62.4633 502.616 60.9503 502.438 59.645C502.26 58.6957 502.497 57.2123 503.15 55.195C503.862 53.1777 504.841 51.101 506.087 48.965C507.333 46.829 509.024 44.96 511.16 43.358C513.296 41.756 515.521 40.955 517.835 40.955L540.085 41.133V30.453H497.009V21.909H557.974V30.453H551.121V81.895L540.085 76.911ZM556.283 30.453V21.909H580.936V30.453H574.083V81.984L563.047 77V30.453H556.283ZM580.362 30.453V21.909H635.453V30.453H628.6V81.895L617.564 76.911V65.875C613.589 69.079 610.088 70.681 607.062 70.681C606.113 70.681 605.134 70.5327 604.125 70.236C603.116 69.88 602.048 69.3163 600.921 68.545C599.794 67.7737 598.815 67.0913 597.984 66.498C597.153 65.8453 596.085 64.896 594.78 63.65C593.534 62.3447 592.585 61.3953 591.932 60.802C591.339 60.1493 590.36 59.111 588.995 57.687C587.69 56.2037 586.859 55.284 586.503 54.928C586.147 54.572 585.969 46.4137 585.969 30.453H580.362ZM597.094 58.488C599.645 60.98 603.116 61.336 607.507 59.556C611.898 57.776 615.25 54.928 617.564 51.012V30.453H596.916L597.094 58.488Z" fill="white"/>
</svg>
