<svg width="627" height="95" viewBox="0 0 627 95" fill="none" xmlns="http://www.w3.org/2000/svg">
<path d="M45.369 30.542L41.987 21.909H70.556V30.542H64.682V81.984L53.646 77V53.237C52.934 53.4743 52.222 53.682 51.51 53.86C50.798 53.9787 50.0563 54.038 49.285 54.038C48.573 53.9787 47.95 53.949 47.416 53.949C46.882 53.8897 46.1997 53.7413 45.369 53.504C44.5977 53.2667 44.0043 53.0887 43.589 52.97C43.233 52.8513 42.6397 52.614 41.809 52.258C40.9783 51.8427 40.4147 51.5757 40.118 51.457C39.8807 51.3383 39.317 51.0417 38.427 50.567C37.537 50.0923 37.0327 49.8253 36.914 49.766L36.469 50.122C37.893 51.0713 38.783 51.6647 39.139 51.902C39.495 52.1393 40.296 52.7623 41.542 53.771C42.8473 54.7203 43.767 55.551 44.301 56.263C44.8943 56.9157 45.5767 57.8353 46.348 59.022C47.1193 60.1493 47.7127 61.336 48.128 62.582C48.8993 64.7773 48.4543 67.0913 46.793 69.524C45.191 71.9567 42.966 73.9443 40.118 75.487C37.3293 77.0297 34.333 78.0977 31.129 78.691C27.9843 79.3437 25.255 78.958 22.941 77.534C17.779 74.3893 10.3623 65.697 0.691 51.457L2.916 49.855C3.03467 49.9737 3.59833 50.745 4.607 52.169C5.675 53.593 6.41667 54.572 6.832 55.106C7.30667 55.64 8.13733 56.6487 9.324 58.132C10.57 59.556 11.549 60.624 12.261 61.336C13.0323 61.9887 14.0707 62.9083 15.376 64.095C16.6813 65.2817 17.8383 66.142 18.847 66.676C19.8557 67.21 21.0423 67.8033 22.407 68.456C23.7717 69.0493 25.0473 69.4053 26.234 69.524C27.4207 69.5833 28.726 69.4943 30.15 69.257C31.574 69.0197 32.9387 68.545 34.244 67.833C37.5073 65.9343 38.961 63.5907 38.605 60.802C38.3083 57.954 36.4987 55.0467 33.176 52.08C30.0313 53.504 26.679 54.305 23.119 54.483L18.313 46.206C24.365 45.5533 29.0523 44.159 32.375 42.023C35.6977 39.887 36.825 37.5137 35.757 34.903C34.8077 32.589 33.354 31.1353 31.396 30.542C29.438 29.8893 27.213 30.0377 24.721 30.987C22.2883 31.9363 20.3007 32.8263 18.758 33.657C17.2747 34.4877 15.732 35.437 14.13 36.505L8.701 28.762L10.392 27.516C11.5787 26.7447 12.4983 26.181 13.151 25.825C13.8037 25.4097 14.8123 24.8163 16.177 24.045C17.5417 23.2143 18.6987 22.6507 19.648 22.354C20.6567 22.0573 21.784 21.7903 23.03 21.553C24.276 21.3157 25.433 21.3453 26.501 21.642C27.569 21.8793 28.548 22.354 29.438 23.066C34.7187 27.516 38.694 31.076 41.364 33.746C43.322 35.882 43.9747 38.3443 43.322 41.133C42.6693 43.9217 40.9783 46.473 38.249 48.787C44.123 49.7363 49.2553 48.0157 53.646 43.625V30.542H45.369ZM113.813 77V61.692H99.9295C99.9295 64.718 99.5141 67.2693 98.6835 69.346C97.9121 71.4227 96.9331 72.906 95.7465 73.796C94.6191 74.6267 93.3731 75.1903 92.0085 75.487C90.6438 75.7243 89.4571 75.754 88.4485 75.576C87.4398 75.398 86.6388 75.1013 86.0455 74.686C82.1888 72.0753 79.0441 69.3163 76.6115 66.409C76.0181 65.697 75.6325 64.7773 75.4545 63.65C75.2765 62.5227 75.3655 61.3063 75.7215 60.001C76.0775 58.6957 76.7005 57.4793 77.5905 56.352C78.5398 55.1653 79.9935 54.2457 81.9515 53.593C83.9095 52.881 86.2235 52.5843 88.8935 52.703V46.74C86.5795 46.918 85.2148 46.7697 84.7995 46.295C83.0195 44.515 80.9131 42.646 78.4805 40.688C76.1071 38.6707 74.2975 37.0687 73.0515 35.882C71.9835 34.9327 71.4495 33.657 71.4495 32.055C71.5088 30.3937 72.0131 28.8213 72.9625 27.338C73.9118 25.8547 75.0985 24.5197 76.5225 23.333C77.9465 22.087 79.4891 21.4343 81.1505 21.375C82.8118 21.2563 84.4138 21.7903 85.9565 22.977C86.8465 23.7483 88.1815 24.8757 89.9615 26.359C91.7415 27.783 93.0765 28.8807 93.9665 29.652C94.9158 30.4233 95.9838 31.3727 97.1705 32.5C98.3571 33.568 99.3361 34.547 100.107 35.437L99.9295 42.824V52.97L113.813 52.881V30.453H100.997L97.6155 21.909H131.524V30.453H124.849V81.984L113.813 77ZM88.8935 38.552C88.8935 33.212 88.7155 30.364 88.3595 30.008C86.9948 28.584 85.3928 28.406 83.5535 29.474C81.7735 30.542 80.5868 31.9957 79.9935 33.835C79.4595 35.6743 79.5781 37.0983 80.3495 38.107C81.6548 39.1157 84.5028 39.264 88.8935 38.552ZM88.8045 61.336C86.9651 61.0987 85.4818 61.3063 84.3545 61.959C83.2271 62.6117 82.6338 63.383 82.5745 64.273C82.5745 65.163 82.8118 65.9937 83.2865 66.765C83.8205 67.1803 84.5028 67.477 85.3335 67.655C86.1641 67.7737 86.9355 67.2693 87.6475 66.142C88.4188 65.0147 88.8045 63.4127 88.8045 61.336ZM174.183 76.911V62.137C169.259 67.833 164.482 70.681 159.854 70.681C157.362 70.681 154.514 69.8207 151.31 68.1C148.106 66.32 145.229 64.3027 142.677 62.048C140.185 59.734 138.049 57.598 136.269 55.64C134.489 53.682 133.51 52.3767 133.332 51.724C133.273 51.4273 133.718 50.8637 134.667 50.033C135.617 49.2023 136.863 48.1937 138.405 47.007C140.007 45.761 141.194 44.782 141.965 44.07C145.407 40.9847 147.365 38.4037 147.839 36.327C148.373 34.2503 147.691 32.2923 145.792 30.453H130.573V21.909H191.983V30.453H185.219V81.895L174.183 76.911ZM143.567 56.441C147.305 60.2977 151.162 62.048 155.137 61.692C159.113 61.2767 162.732 59.734 165.995 57.064C169.318 54.3347 172.047 50.923 174.183 46.829V30.453H151.666C155.226 33.4197 157.155 36.2973 157.451 39.086C157.511 39.7387 157.451 40.421 157.273 41.133C157.095 41.845 156.858 42.4977 156.561 43.091C156.324 43.6843 155.879 44.3963 155.226 45.227C154.633 45.9983 154.099 46.651 153.624 47.185C153.209 47.719 152.497 48.4607 151.488 49.41C150.48 50.3593 149.679 51.0713 149.085 51.546C148.551 52.0207 147.632 52.8217 146.326 53.949C145.08 55.0763 144.161 55.907 143.567 56.441ZM191.335 30.453V21.909H197.387C195.785 20.1883 194.598 18.2897 193.827 16.213C193.115 14.1363 193.026 12.297 193.56 10.695C194.272 8.85566 196.645 6.66033 200.68 4.10899C204.714 1.55766 207.622 0.34133 209.402 0.459999C211.656 0.578664 221.12 4.04966 237.793 10.873C254.525 17.6963 264.018 21.9387 266.273 23.6L260.577 23.511C238.564 15.145 222.663 10.9027 212.873 10.784C204.151 10.7247 202.519 14.433 207.978 21.909H215.988V30.453H209.135V82.073L198.099 77.089V30.453H191.335ZM264.273 76.911V59.022C260.476 60.8613 257.301 61.781 254.75 61.781C252.555 61.781 248.728 59.912 243.269 56.174C240.777 58.9627 237.543 60.98 233.568 62.226C234.636 64.2433 237.039 66.8837 240.777 70.147C244.574 73.4103 248.253 76.2583 251.813 78.691L249.321 81.984C241.074 76.822 235.289 72.8467 231.966 70.058C224.846 64.1247 220.099 57.8353 217.726 51.19C219.091 47.3333 220.455 44.604 221.82 43.002C222.354 42.3493 223.333 42.379 224.757 43.091C226.181 43.803 227.457 44.693 228.584 45.761C228.881 46.117 229.118 46.651 229.296 47.363C229.533 48.0157 229.741 48.9353 229.919 50.122C230.156 51.2493 230.394 52.2283 230.631 53.059C233.004 52.2877 234.844 51.0417 236.149 49.321C237.514 47.6003 238.285 45.672 238.463 43.536C238.7 41.3407 238.641 39.175 238.285 37.039C237.988 34.8437 237.454 32.6483 236.683 30.453H215.323V21.909H280.115V30.453H275.309V81.895L264.273 76.911ZM242.735 30.453C245.286 34.369 246.799 38.3147 247.274 42.29C247.808 46.206 247.185 49.7957 245.405 53.059C247.185 53.8303 249.113 54.2753 251.19 54.394C253.326 54.4533 255.64 53.8897 258.132 52.703C260.624 51.457 262.671 49.499 264.273 46.829V30.453H242.735ZM267.477 18.679C264.273 17.1957 261.9 14.8817 260.357 11.737C260.476 10.7283 261.425 9.45266 263.205 7.90999C264.926 6.308 266.29 5.38833 267.299 5.151C270.562 6.575 272.906 8.8 274.33 11.826C273.381 14.496 271.096 16.7803 267.477 18.679ZM278.397 30.453V21.909H329.127V30.453H319.782V43.091H300.113C297.799 43.091 295.99 43.8623 294.684 45.405C293.379 46.9477 292.845 48.7277 293.082 50.745C293.32 52.703 294.328 54.2457 296.108 55.373C302.338 51.3383 306.848 49.3803 309.636 49.499C311.772 49.5583 315.036 51.7833 319.426 56.174C323.876 60.5647 326.131 63.4127 326.19 64.718C326.309 67.5067 325.211 70.1767 322.897 72.728C320.583 75.22 318.358 76.8813 316.222 77.712L309.725 71.037C312.573 69.791 314.798 68.011 316.4 65.697C318.002 63.383 318.032 61.2767 316.489 59.378C315.659 58.5473 314.442 58.1617 312.84 58.221C311.238 58.221 309.429 58.7253 307.411 59.734C305.394 60.7427 303.495 61.9293 301.715 63.294C299.935 64.5993 298.452 66.142 297.265 67.922C296.079 69.6427 295.515 71.2743 295.574 72.817C295.693 75.6057 297.354 78.6613 300.558 81.984C303.822 85.3067 307.797 88.5107 312.484 91.596L309.903 94.711C306.818 92.5157 304.801 91.0917 303.851 90.439C302.961 89.7863 301.181 88.4217 298.511 86.345C295.841 84.3277 293.972 82.785 292.904 81.717C291.836 80.649 290.501 79.2547 288.899 77.534C287.357 75.8727 286.259 74.33 285.606 72.906C285.013 71.4227 284.687 69.9987 284.627 68.634C284.568 65.5487 287.386 61.8403 293.082 57.509C290.709 55.373 288.751 53.4743 287.208 51.813C286.14 50.2703 285.784 48.3717 286.14 46.117C286.496 43.8623 287.416 41.7263 288.899 39.709C290.442 37.6323 291.985 36.5643 293.527 36.505L309.903 35.526V30.453H278.397ZM415.498 77V49.855H402.415C404.017 51.279 405.412 52.7623 406.598 54.305C407.844 55.7883 408.616 56.9453 408.912 57.776C409.624 59.9713 409.061 62.1963 407.221 64.451C405.441 66.7057 403.068 68.4857 400.101 69.791C397.194 71.037 394.138 71.8973 390.934 72.372C387.79 72.7873 385.238 72.283 383.28 70.859C379.483 68.2483 372.63 59.6153 362.721 44.96L365.035 43.536C369.604 49.054 372.778 52.703 374.558 54.483C381.026 60.7723 386.692 63.205 391.557 61.781C392.329 61.5437 393.1 61.247 393.871 60.891C394.702 60.4757 395.503 59.912 396.274 59.2C397.105 58.488 397.728 57.7167 398.143 56.886C398.559 55.996 398.677 54.9577 398.499 53.771C398.381 52.525 397.876 51.2197 396.986 49.855H390.578L380.877 41.311H415.498V30.453H359.072V21.909H434.188V30.453H426.534V81.984L415.498 77ZM433.125 30.453V21.909H492.043V30.453H484.745V81.984L473.709 77V30.453H451.993C455.85 34.6063 458.49 39.0563 459.914 43.803C461.398 48.4903 461.724 52.6733 460.893 56.352C460.063 59.9713 458.342 62.9973 455.731 65.43C453.121 67.8033 449.917 68.99 446.119 68.99C445.111 68.99 443.538 67.8627 441.402 65.608C439.266 63.3533 437.961 61.6623 437.486 60.535C436.893 59.111 436.952 56.9157 437.664 53.949C438.436 50.9823 439.563 49.232 441.046 48.698C441.224 48.6387 442.055 49.0837 443.538 50.033C445.081 50.9823 446.06 51.635 446.475 51.991C446.713 52.169 446.891 52.3767 447.009 52.614C447.128 52.792 447.247 53.059 447.365 53.415C447.484 53.7117 447.573 53.949 447.632 54.127C447.692 54.2457 447.781 54.6017 447.899 55.195C448.018 55.729 448.107 56.1147 448.166 56.352C450.777 52.4953 451.964 48.1047 451.726 43.18C451.548 38.2553 450.095 34.013 447.365 30.453H433.125ZM530.698 76.911V49.677L514.767 49.41C511.207 49.3507 508.359 50.4187 506.223 52.614C504.146 54.75 503.256 57.5683 503.553 61.069C503.909 64.5697 505.6 68.0407 508.626 71.482C511.177 74.33 513.728 76.9703 516.28 79.403L513.165 81.984C509.901 79.136 507.558 77.0593 506.134 75.754C504.71 74.4487 502.781 72.6093 500.349 70.236C497.916 67.8627 496.136 65.8453 495.009 64.184C493.881 62.4633 493.229 60.9503 493.051 59.645C492.873 58.6957 493.11 57.2123 493.763 55.195C494.475 53.1777 495.454 51.101 496.7 48.965C497.946 46.829 499.637 44.96 501.773 43.358C503.909 41.756 506.134 40.955 508.448 40.955L530.698 41.133V30.453H487.622V21.909H548.587V30.453H541.734V81.895L530.698 76.911ZM546.896 30.453V21.909H571.549V30.453H564.696V81.984L553.66 77V30.453H546.896ZM570.975 30.453V21.909H626.066V30.453H619.213V81.895L608.177 76.911V65.875C604.202 69.079 600.701 70.681 597.675 70.681C596.726 70.681 595.747 70.5327 594.738 70.236C593.73 69.88 592.662 69.3163 591.534 68.545C590.407 67.7737 589.428 67.0913 588.597 66.498C587.767 65.8453 586.699 64.896 585.393 63.65C584.147 62.3447 583.198 61.3953 582.545 60.802C581.952 60.1493 580.973 59.111 579.608 57.687C578.303 56.2037 577.472 55.284 577.116 54.928C576.76 54.572 576.582 46.4137 576.582 30.453H570.975ZM587.707 58.488C590.259 60.98 593.73 61.336 598.12 59.556C602.511 57.776 605.863 54.928 608.177 51.012V30.453H587.529L587.707 58.488Z" fill="white"/>
</svg>
